<svg xmlns="http://www.w3.org/2000/svg" width="900" height="150" viewBox="0 0 900 150" font-family="Verdana, Geneva, Tahoma, sans-serif">
  <defs>
    <linearGradient id="sky" x1="0" y1="0" x2="0" y2="1">
      <stop offset="0" stop-color="#6fa8dc"/>
      <stop offset="1" stop-color="#3d6fb5"/>
    </linearGradient>
    <linearGradient id="shine" x1="0" y1="0" x2="0" y2="1">
      <stop offset="0" stop-color="#ffffff" stop-opacity="0.55"/>
      <stop offset="1" stop-color="#ffffff" stop-opacity="0"/>
    </linearGradient>
  </defs>
  <rect width="900" height="150" fill="url(#sky)"/>
  <rect width="900" height="70" fill="url(#shine)"/>
  <!-- sparkles -->
  <g fill="#ffffff" opacity="0.85">
    <path d="M60 30 l3 9 9 3 -9 3 -3 9 -3 -9 -9 -3 9 -3 z"/>
    <path d="M840 100 l2 6 6 2 -6 2 -2 6 -2 -6 -6 -2 6 -2 z"/>
    <path d="M120 110 l2 5 5 2 -5 2 -2 5 -2 -5 -5 -2 5 -2 z"/>
    <path d="M790 35 l2 6 6 2 -6 2 -2 6 -2 -6 -6 -2 6 -2 z"/>
  </g>
  <text x="40" y="95" font-size="72" font-weight="bold" fill="#ffffff" letter-spacing="-2">my</text>
  <text x="132" y="95" font-size="72" font-weight="bold" fill="#ffd966" letter-spacing="-2">friend</text>
  <text x="410" y="95" font-size="72" font-weight="bold" fill="#ffffff" letter-spacing="-2">tom</text>
  <text x="44" y="128" font-size="22" fill="#eaf2ff" font-style="italic">a place for friends</text>
  <text x="700" y="128" font-size="16" fill="#dce8ff">est. 2003 · online now</text>
  <circle cx="686" cy="122" r="5" fill="#7CFC00" stroke="#2b7a2b"/>
</svg>
