<svg xmlns="http://www.w3.org/2000/svg" width="560" height="260" viewBox="0 0 560 260" font-family="Verdana, Tahoma, sans-serif">
  <defs>
    <linearGradient id="th" x1="0" y1="0" x2="0" y2="1">
      <stop offset="0" stop-color="#5b8fd4"/><stop offset="1" stop-color="#3d6fb5"/>
    </linearGradient>
    <linearGradient id="av" x1="0" y1="0" x2="1" y2="1">
      <stop offset="0" stop-color="#ffd966"/><stop offset="1" stop-color="#e69138"/>
    </linearGradient>
  </defs>
  <rect x="1" y="1" width="558" height="258" fill="#ffffff" stroke="#3d6fb5" stroke-width="2"/>
  <rect x="1" y="1" width="558" height="24" fill="url(#th)"/>
  <text x="10" y="18" font-size="13" font-weight="bold" fill="#ffffff">Tom's Friend Space  (Top 8)</text>
  <text x="470" y="18" font-size="11" fill="#dbe8ff">View All</text>
  <g>
    <!-- 4 cols x 2 rows -->
    <!-- row 1 -->
    <g transform="translate(24,40)">
      <rect width="110" height="90" fill="#eef4ff" stroke="#9bb8e0"/>
      <circle cx="55" cy="38" r="26" fill="url(#av)"/><circle cx="46" cy="34" r="3" fill="#5a3"/><circle cx="64" cy="34" r="3" fill="#5a3"/><path d="M44 48 q11 9 22 0" stroke="#7a4" stroke-width="2" fill="none"/>
      <text x="55" y="82" font-size="11" fill="#2255aa" text-anchor="middle" font-weight="bold">Clippy</text>
    </g>
    <g transform="translate(150,40)">
      <rect width="110" height="90" fill="#eef4ff" stroke="#9bb8e0"/>
      <rect x="30" y="14" width="50" height="48" rx="6" fill="#7fb069"/><circle cx="45" cy="34" r="4" fill="#123"/><circle cx="65" cy="34" r="4" fill="#123"/>
      <text x="55" y="82" font-size="11" fill="#2255aa" text-anchor="middle" font-weight="bold">Octocat</text>
    </g>
    <g transform="translate(276,40)">
      <rect width="110" height="90" fill="#eef4ff" stroke="#9bb8e0"/>
      <circle cx="55" cy="38" r="26" fill="#a64d79"/><path d="M40 40 h30 M55 25 v30" stroke="#fff" stroke-width="3"/>
      <text x="55" y="82" font-size="11" fill="#2255aa" text-anchor="middle" font-weight="bold">DogeCoin</text>
    </g>
    <g transform="translate(402,40)">
      <rect width="110" height="90" fill="#eef4ff" stroke="#9bb8e0"/>
      <rect x="34" y="14" width="42" height="48" fill="#333"/><circle cx="55" cy="38" r="10" fill="#0f0"/>
      <text x="55" y="82" font-size="11" fill="#2255aa" text-anchor="middle" font-weight="bold">Neo</text>
    </g>
    <!-- row 2 -->
    <g transform="translate(24,150)">
      <rect width="110" height="90" fill="#eef4ff" stroke="#9bb8e0"/>
      <circle cx="55" cy="38" r="26" fill="#3d85c6"/><text x="55" y="44" font-size="24" text-anchor="middle" fill="#fff">e</text>
      <text x="55" y="82" font-size="11" fill="#2255aa" text-anchor="middle" font-weight="bold">IE6</text>
    </g>
    <g transform="translate(150,150)">
      <rect width="110" height="90" fill="#eef4ff" stroke="#9bb8e0"/>
      <circle cx="55" cy="38" r="26" fill="#6aa84f"/><path d="M45 30 l0 16 14 -8 z" fill="#fff"/>
      <text x="55" y="82" font-size="11" fill="#2255aa" text-anchor="middle" font-weight="bold">WMP</text>
    </g>
    <g transform="translate(276,150)">
      <rect width="110" height="90" fill="#eef4ff" stroke="#9bb8e0"/>
      <circle cx="55" cy="38" r="26" fill="#e06666"/><path d="M55 52 l-14 -14 a10 10 0 0 1 14 -14 a10 10 0 0 1 14 14 z" fill="#fff"/>
      <text x="55" y="82" font-size="11" fill="#2255aa" text-anchor="middle" font-weight="bold">xX_Emo_Xx</text>
    </g>
    <g transform="translate(402,150)">
      <rect width="110" height="90" fill="#fff7d6" stroke="#e6c34a" stroke-width="2"/>
      <circle cx="55" cy="38" r="26" fill="#ffd966"/><path d="M46 34 h2 M64 34 h2" stroke="#333" stroke-width="3"/><path d="M44 46 q11 9 22 0" stroke="#333" stroke-width="2" fill="none"/>
      <text x="55" y="82" font-size="11" fill="#cc0000" text-anchor="middle" font-weight="bold">YOU?</text>
    </g>
  </g>
</svg>
